<svg data-v-423bf9ae="" xmlns="http://www.w3.org/2000/svg" viewBox="0 0 652 90" class="iconLeft"><!----><!----><!----><g data-v-423bf9ae="" id="553fc30f-8caf-4482-904f-57f0190df6c1" fill="white" transform="matrix(6.711409091949463,0,0,6.711409091949463,111.69476318359375,-41.57718276977539)" style="--darkreader-inline-fill:#181a1b;" data-darkreader-inline-fill=""><path d="M6.50 12.78L6.50 12.78Q7.10 12.94 7.49 13.48L7.49 13.48L7.49 13.48Q7.88 14.03 7.88 14.71L7.88 14.71L7.88 14.71Q7.88 15.90 7.17 16.54L7.17 16.54L7.17 16.54Q6.47 17.18 5.15 17.18L5.15 17.18L0.84 17.18L0.84 8.43L4.66 8.43L4.66 8.43Q6.12 8.43 6.78 8.97L6.78 8.97L6.78 8.97Q7.45 9.52 7.45 10.71L7.45 10.71L7.45 10.71Q7.45 11.35 7.20 11.89L7.20 11.89L7.20 11.89Q6.94 12.42 6.50 12.70L6.50 12.70L6.50 12.78ZM4.97 11.05L4.97 11.05Q4.97 10.56 4.82 10.39L4.82 10.39L4.82 10.39Q4.68 10.22 4.26 10.22L4.26 10.22L3.29 10.22L3.29 11.89L4.26 11.89L4.26 11.89Q4.68 11.89 4.82 11.71L4.82 11.71L4.82 11.71Q4.97 11.54 4.97 11.05L4.97 11.05ZM4.59 15.39L4.59 15.39Q5.00 15.39 5.17 15.18L5.17 15.18L5.17 15.18Q5.35 14.98 5.35 14.48L5.35 14.48L5.35 14.48Q5.35 14 5.18 13.80L5.18 13.80L5.18 13.80Q5.01 13.61 4.61 13.61L4.61 13.61L3.29 13.61L3.29 15.39L4.59 15.39ZM10.32 10.18L11.02 11.14L11.02 11.14Q11.96 10.23 13.06 9.97L13.06 9.97L13.22 12.36L13.22 12.36Q12.85 12.42 12.33 12.62L12.33 12.62L12.33 12.62Q11.82 12.82 11.56 13.01L11.56 13.01L11.56 17.18L9.10 17.18L9.10 10.18L10.32 10.18ZM17.57 15.55L17.57 15.55Q18.76 15.55 20.05 15.19L20.05 15.19L20.36 16.91L20.36 16.91Q18.97 17.37 17.30 17.37L17.30 17.37L17.30 17.37Q15.46 17.37 14.64 16.51L14.64 16.51L14.64 16.51Q13.83 15.65 13.83 13.68L13.83 13.68L13.83 13.68Q13.83 11.72 14.66 10.85L14.66 10.85L14.66 10.85Q15.50 9.98 17.36 9.98L17.36 9.98L17.36 9.98Q18.61 9.98 19.29 10.19L19.29 10.19L19.29 10.19Q19.96 10.40 20.25 10.89L20.25 10.89L20.25 10.89Q20.54 11.38 20.54 12.29L20.54 12.29L20.54 12.29Q20.54 13.19 20.17 13.68L20.17 13.68L20.17 13.68Q19.81 14.17 18.94 14.38L18.94 14.38L18.94 14.38Q18.07 14.59 16.48 14.59L16.48 14.59L16.48 15.47L16.48 15.47Q16.87 15.55 17.57 15.55L17.57 15.55ZM17.49 11.80L17.49 11.80Q16.91 11.80 16.70 11.93L16.70 11.93L16.70 11.93Q16.48 12.05 16.48 12.40L16.48 12.40L16.48 13.30L17.30 13.30L17.30 13.30Q17.88 13.30 18.09 13.17L18.09 13.17L18.09 13.17Q18.31 13.03 18.31 12.67L18.31 12.67L18.31 11.80L17.49 11.80ZM29.61 10.18L32.02 10.18L30.60 17.18L27.33 17.18L26.64 13.85L25.94 17.18L22.67 17.18L21.25 10.18L23.66 10.18L24.50 15.04L24.64 15.04L25.59 10.18L27.68 10.18L28.63 15.04L28.77 15.04L29.61 10.18ZM36.32 15.55L36.32 15.55Q37.51 15.55 38.79 15.19L38.79 15.19L39.10 16.91L39.10 16.91Q37.72 17.37 36.05 17.37L36.05 17.37L36.05 17.37Q34.20 17.37 33.39 16.51L33.39 16.51L33.39 16.51Q32.58 15.65 32.58 13.68L32.58 13.68L32.58 13.68Q32.58 11.72 33.41 10.85L33.41 10.85L33.41 10.85Q34.24 9.98 36.11 9.98L36.11 9.98L36.11 9.98Q37.35 9.98 38.03 10.19L38.03 10.19L38.03 10.19Q38.71 10.40 39.00 10.89L39.00 10.89L39.00 10.89Q39.28 11.38 39.28 12.29L39.28 12.29L39.28 12.29Q39.28 13.19 38.92 13.68L38.92 13.68L38.92 13.68Q38.56 14.17 37.69 14.38L37.69 14.38L37.69 14.38Q36.82 14.59 35.22 14.59L35.22 14.59L35.22 15.47L35.22 15.47Q35.62 15.55 36.32 15.55L36.32 15.55ZM36.23 11.80L36.23 11.80Q35.66 11.80 35.44 11.93L35.44 11.93L35.44 11.93Q35.22 12.05 35.22 12.40L35.22 12.40L35.22 13.30L36.05 13.30L36.05 13.30Q36.62 13.30 36.84 13.17L36.84 13.17L36.84 13.17Q37.06 13.03 37.06 12.67L37.06 12.67L37.06 11.80L36.23 11.80ZM42 10.18L42.70 11.14L42.70 11.14Q43.64 10.23 44.74 9.97L44.74 9.97L44.90 12.36L44.90 12.36Q44.53 12.42 44.02 12.62L44.02 12.62L44.02 12.62Q43.50 12.82 43.25 13.01L43.25 13.01L43.25 17.18L40.78 17.18L40.78 10.18L42 10.18ZM52.57 10.46L52.57 17.18L50.11 17.18L50.11 10.46L48.06 10.46L48.06 8.43L54.61 8.43L54.61 10.46L52.57 10.46ZM58.02 17.37L58.02 17.37Q56.74 17.37 55.97 17.00L55.97 17.00L55.97 17.00Q55.20 16.62 54.84 15.81L54.84 15.81L54.84 15.81Q54.47 15.01 54.47 13.68L54.47 13.68L54.47 13.68Q54.47 12.35 54.84 11.54L54.84 11.54L54.84 11.54Q55.20 10.72 55.97 10.35L55.97 10.35L55.97 10.35Q56.74 9.98 58.02 9.98L58.02 9.98L58.02 9.98Q59.30 9.98 60.08 10.35L60.08 10.35L60.08 10.35Q60.86 10.72 61.21 11.54L61.21 11.54L61.21 11.54Q61.57 12.35 61.57 13.68L61.57 13.68L61.57 13.68Q61.57 15.01 61.21 15.81L61.21 15.81L61.21 15.81Q60.84 16.62 60.07 17.00L60.07 17.00L60.07 17.00Q59.29 17.37 58.02 17.37L58.02 17.37ZM57.12 15.50L58.37 15.50L58.37 15.50Q58.70 15.50 58.82 15.42L58.82 15.42L58.82 15.42Q58.94 15.34 58.94 15.12L58.94 15.12L58.94 11.86L57.69 11.86L57.69 11.86Q57.36 11.86 57.24 11.94L57.24 11.94L57.24 11.94Q57.12 12.01 57.12 12.24L57.12 12.24L57.12 15.50ZM70.50 10.18L72.91 10.18L71.50 17.18L68.22 17.18L67.54 13.85L66.84 17.18L63.56 17.18L62.15 10.18L64.55 10.18L65.39 15.04L65.53 15.04L66.49 10.18L68.57 10.18L69.52 15.04L69.66 15.04L70.50 10.18ZM73.79 17.18L73.79 10.18L75.01 10.18L75.64 10.88L75.64 10.88Q76.80 9.98 78.39 9.98L78.39 9.98L78.39 9.98Q79.37 9.98 79.91 10.38L79.91 10.38L79.91 10.38Q80.46 10.78 80.46 11.49L80.46 11.49L80.46 17.18L77.99 17.18L77.99 12.01L76.96 12.01L76.96 12.01Q76.57 12.01 76.41 12.12L76.41 12.12L76.41 12.12Q76.26 12.24 76.26 12.50L76.26 12.50L76.26 17.18L73.79 17.18Z"></path></g><!----><g data-v-423bf9ae="" id="f50080fc-3327-4898-ac20-e3d7b2dd81dd" transform="matrix(1.6222059726715088,0,0,1.6222059726715088,0.33382081985473633,1.0000028610229492)" stroke="none" fill="white" style="--darkreader-inline-fill:#181a1b; --darkreader-inline-stroke:none;" data-darkreader-inline-fill="" data-darkreader-inline-stroke=""><path d="M36 41c0-.55-.45-1-1-1h-6c-.55 0-1 .45-1 1s.45 1 1 1h6c.55 0 1-.45 1-1zM37 40h4c.55 0 1-.45 1-1s-.45-1-1-1h-4c-.55 0-1 .45-1 1s.45 1 1 1zM37 43h-5c-.55 0-1 .45-1 1s.45 1 1 1h5c.55 0 1-.45 1-1s-.45-1-1-1zM42 42c0-.55-.45-1-1-1h-1c-.55 0-1 .45-1 1s.45 1 1 1h1c.55 0 1-.45 1-1zM29 11.9h5c.55 0 1-.45 1-1s-.45-1-1-1h-5c-.55 0-1 .45-1 1s.45 1 1 1zM38 11.9h5c.55 0 1-.45 1-1s-.45-1-1-1h-5c-.55 0-1 .45-1 1s.45 1 1 1zM30 15.9c.55 0 1-.45 1-1s-.45-1-1-1h-2c-.55 0-1 .45-1 1s.45 1 1 1h2zM33 14.9c0 .55.45 1 1 1h9c.55 0 1-.45 1-1s-.45-1-1-1h-9c-.55 0-1 .45-1 1zM31 38h4c.55 0 1-.45 1-1s-.45-1-1-1h-4c-.55 0-1 .45-1 1s.45 1 1 1zM31 19.9h4c.55 0 1-.45 1-1s-.45-1-1-1h-4c-.55 0-1 .45-1 1s.45 1 1 1z"></path><path d="M56.43 51.54l-3.03-5.83c.48-.2.96-.4 1.42-.62l.62-.29c.1-.05.2-.12.28-.2C57.43 42.88 60 36.74 60 26.9c0-9.22-2.23-15.64-4.29-17.71a.95.95 0 0 0-.28-.2l-.62-.29c-4.98-2.37-11.13-3.9-17.84-4.45l.98-2.94a1 1 0 0 0-.14-.9A1 1 0 0 0 37 0h-8c-.32 0-.62.15-.81.42a1 1 0 0 0-.14.9l.92 2.77c-2.25.09-4.46.28-6.61.59-.06 0-.12-.01-.19 0-1.1.16-2.24.37-3.55.64-3.82.78-7.37 1.92-10.43 3.38-.12.06-.22.14-.33.21-3.85.28-4.65 11.67-4.8 15.19C1.31 24.49 0 26.04 0 27.9V33c0 .55.45 1 1 1h2.36c.46 4.37 1.63 10.65 4.48 10.88.11.08.22.16.34.22 1.62.77 3.37 1.45 5.21 2.04L10.9 51.5c-.04.06-.06.13-.09.2-.28.89-.12 1.84.43 2.59a2.89 2.89 0 0 0 2.34 1.19c1.24 0 2.33-.77 2.74-1.93l2.77-4.94c.18.04.36.06.54.09.45.09.88.17 1.3.24l2.72 4.62c.42 1.16 1.5 1.92 2.74 1.92.94 0 1.79-.43 2.34-1.19.55-.75.71-1.7.43-2.59-.03-.1-.08-.2-.14-.29l-1.25-1.73c1.23.07 2.46.11 3.71.11 2.79 0 5.53-.19 8.2-.53l-1.44 2.18c-.05.08-.09.17-.12.25-.28.89-.12 1.84.43 2.59a2.89 2.89 0 0 0 2.34 1.19c1.24 0 2.33-.77 2.74-1.94l3.04-5.57c.4-.1.79-.22 1.19-.33l3.09 5.89a2.9 2.9 0 0 0 2.75 1.95c.94 0 1.79-.43 2.34-1.19.55-.75.71-1.7.43-2.59.01-.04-.02-.1-.04-.15zM47.06 8c.71.2 1.41.4 2.1.63C50.33 13.36 51 19.97 51 26.9c0 6.92-.67 13.54-1.84 18.27-.68.22-1.38.43-2.1.63C48.3 40.9 49 34.14 49 26.9s-.7-14-1.94-18.9zm7.34 2.72c1.44 1.61 3.6 7.24 3.6 16.18 0 9.24-2.36 14.76-3.6 16.18l-.45.21c-.74.35-1.51.68-2.31 1h-.01c-.08.03-.17.06-.25.1 1.03-4.76 1.61-11 1.61-17.49 0-6.49-.58-12.72-1.61-17.48.88.34 1.75.7 2.56 1.09l.46.21zM35.61 2l-1.33 4h-2.56l-.43-1.29-.9-2.71h5.22zM20.5 46.83c-.22-.04-.45-.08-.68-.13C21.21 41.75 22 34.62 22 26.9c0-7.72-.79-14.84-2.18-19.79.6-.12 1.2-.23 1.82-.33C23.12 11.49 24 18.91 24 26.9c0 7.98-.88 15.4-2.36 20.12-.38-.07-.77-.12-1.14-.19zM10 43.71c2.17-2.88 2.91-10.38 2.99-15.74v-.13c.01-.32.01-.63.01-.94 0-.31 0-.62-.01-.95v-.13c-.09-5.36-.82-12.88-3-15.75 2.38-1.05 5.03-1.89 7.87-2.55C19.2 12.26 20 19.4 20 26.9c0 7.5-.8 14.63-2.14 19.37-.9-.21-1.79-.44-2.68-.69h-.02c-1.82-.54-3.55-1.16-5.16-1.87zM2 27.9c0-1.05.85-1.9 1.9-1.9H7v2h-.37C5.18 28 4 29.18 4 30.63V32H2v-4.1zm3.37 6.03l.01-.01c.02-.01.03-.02.05-.03.09-.04.17-.1.24-.16l.08-.08c.05-.06.1-.13.14-.2.02-.03.03-.06.05-.1.03-.11.06-.22.06-.35v-2.37c0-.35.28-.63.63-.63H8c.55 0 1-.45 1-1v-4c0-.55-.45-1-1-1H5.06c.36-8.77 2.18-12.87 2.91-13.09.01 0 .02.01.02.01.32.07.73.66 1.14 1.73C10.05 15.09 11 20 11 26.9c0 6.97-.97 11.91-1.9 14.32-.4 1.02-.79 1.59-1.11 1.66-.01 0-.01.01-.02.01-.5-.18-1.9-2.53-2.6-8.96zm11.71 14.22l-2.53 4.5c-.03.06-.06.12-.08.19-.12.38-.47.64-.87.64-.29 0-.56-.13-.73-.37a.889.889 0 0 1-.16-.72l2.67-4.67a44.75 44.75 0 0 0 1.7.43zm10.22 4.28a.88.88 0 0 1-.17.68c-.17.24-.44.37-.73.37-.4 0-.75-.26-.87-.64a.95.95 0 0 0-.09-.21l-1.96-3.33c.22.03.44.05.66.07.35.04.69.09 1.05.12l2.11 2.94zm-1.46-4.88c-.01 0-.01 0-.02-.01-.52-.05-1.05-.11-1.59-.17l-.55-.06h-.03C25.13 42.38 26 34.9 26 26.9s-.87-15.47-2.36-20.39c1.95-.24 3.95-.41 5.98-.46l.42 1.27c.15.4.53.68.96.68h4c.43 0 .81-.28.95-.68l.37-1.12c2.97.22 5.82.65 8.51 1.26C46.21 12.23 47 19.27 47 26.9c0 7.63-.79 14.66-2.16 19.44-1.02.23-2.08.44-3.24.63h-.01c-3.23.53-6.62.82-10.09.82-1.92.01-3.81-.08-5.66-.24zm16.01 5.11c-.03.06-.06.12-.08.18-.12.38-.47.64-.87.64-.29 0-.56-.13-.73-.37a.872.872 0 0 1-.16-.7l2.34-3.54.14-.03c.53-.09 1.07-.18 1.59-.28l-2.23 4.1zm12.6.45c-.17.24-.44.37-.73.37-.4 0-.75-.26-.87-.64a1.22 1.22 0 0 0-.07-.17l-2.94-5.61c.25-.08.49-.18.74-.26.32-.11.65-.22.95-.33l3.07 5.9c.06.26.01.52-.15.74z"></path></g><!----></svg>